<?xml version="1.0" standalone="no"?><!DOCTYPE svg PUBLIC "-//W3C//DTD SVG 1.1//EN" "http://www.w3.org/Graphics/SVG/1.1/DTD/svg11.dtd"><svg t="1621588654182" class="icon" viewBox="0 0 1092 1024" version="1.1" xmlns="http://www.w3.org/2000/svg" p-id="2200" xmlns:xlink="http://www.w3.org/1999/xlink" width="51.1875" height="48"><defs><style type="text/css"></style></defs><path d="M546.133333 286.72L204.8 580.266667V887.466667c0 34.133333 34.133333 68.266667 68.266667 68.266666h546.133333c34.133333 0 68.266667-34.133333 68.266667-68.266666V580.266667L546.133333 286.72z m102.4 566.613333h-204.8V682.666667c0-40.96 27.306667-68.266667 68.266667-68.266667h68.266667c40.96 0 68.266667 27.306667 68.266666 68.266667v170.666666z" fill="#C4F6E0" p-id="2201"></path><path d="M819.2 983.04H273.066667c-47.786667 0-95.573333-47.786667-95.573334-95.573333V566.613333L546.133333 252.586667l368.64 320.853333V887.466667c0 47.786667-47.786667 95.573333-95.573333 95.573333zM232.106667 593.92V887.466667c0 20.48 20.48 40.96 40.96 40.96h546.133333c20.48 0 40.96-20.48 40.96-40.96V593.92L546.133333 320.853333l-314.026666 273.066667z m443.733333 286.72H416.426667V682.666667c0-54.613333 40.96-95.573333 95.573333-95.573334h68.266667c54.613333 0 95.573333 40.96 95.573333 95.573334v197.973333z m-204.8-54.613333h150.186667V682.666667c0-20.48-20.48-40.96-40.96-40.96h-68.266667c-20.48 0-40.96 20.48-40.96 40.96v143.36z" fill="#22B573" p-id="2202"></path><path d="M1024 491.52c-6.826667 13.653333-20.48 20.48-34.133333 20.48h-54.613334L546.133333 170.666667l-389.12 341.333333h-54.613333c-13.653333 0-27.306667-6.826667-34.133333-20.48 0-13.653333 0-34.133333 13.653333-40.96l416.426667-361.813333c13.653333-13.653333 27.306667-20.48 47.786666-20.48 20.48 0 34.133333 6.826667 47.786667 20.48l122.88 102.4V136.533333c0-20.48 13.653333-34.133333 34.133333-34.133333h34.133334c20.48 0 34.133333 13.653333 34.133333 34.133333v143.36l191.146667 170.666667c13.653333 6.826667 13.653333 27.306667 13.653333 40.96z" fill="#C4F6E0" p-id="2203"></path><path d="M989.866667 539.306667h-61.44L546.133333 211.626667 163.84 539.306667h-61.44c-27.306667 0-47.786667-13.653333-61.44-40.96-6.826667-27.306667 0-54.613333 20.48-68.266667L477.866667 68.266667C512 34.133333 573.44 34.133333 614.4 68.266667l75.093333 68.266666c0-34.133333 27.306667-54.613333 61.44-54.613333h34.133334c34.133333 0 61.44 27.306667 61.44 61.44V273.066667l184.32 157.013333c20.48 20.48 27.306667 47.786667 20.48 68.266667-13.653333 27.306667-34.133333 40.96-61.44 40.96z m-40.96-54.613334h40.96s6.826667 0 6.826666-6.826666v-6.826667l-204.8-177.493333V136.533333c0-6.826667 0-6.826667-6.826666-6.826666H750.933333c-6.826667 0-6.826667 6.826667-6.826666 6.826666v116.053334L580.266667 109.226667c-20.48-13.653333-47.786667-13.653333-61.44 0L102.4 471.04s-6.826667 6.826667 0 6.826667l6.826667 6.826666h40.96L546.133333 136.533333l402.773334 348.16z" fill="#22B573" p-id="2204"></path></svg>