<?xml version="1.0" standalone="no"?><!DOCTYPE svg PUBLIC "-//W3C//DTD SVG 1.1//EN" "http://www.w3.org/Graphics/SVG/1.1/DTD/svg11.dtd"><svg t="1622201464396" class="icon" viewBox="0 0 1024 1024" version="1.1" xmlns="http://www.w3.org/2000/svg" p-id="5172" xmlns:xlink="http://www.w3.org/1999/xlink" width="48" height="48"><defs><style type="text/css"></style></defs><path d="M905.846154 925.538462c-66.953846 0-118.153846-51.2-118.153846-118.153847s51.2-118.153846 118.153846-118.153846 118.153846 51.2 118.153846 118.153846-51.2 118.153846-118.153846 118.153847z m-787.692308 0c-66.953846 0-118.153846-51.2-118.153846-118.153847s51.2-118.153846 118.153846-118.153846 118.153846 51.2 118.153846 118.153846-51.2 118.153846-118.153846 118.153847zM512 275.692308c-66.953846 0-118.153846-51.2-118.153846-118.153846s51.2-118.153846 118.153846-118.153847 118.153846 51.2 118.153846 118.153847-51.2 118.153846-118.153846 118.153846z" fill="#6AB5FF" p-id="5173"></path><path d="M905.846154 886.153846c43.323077 0 78.769231-35.446154 78.769231-78.769231s-35.446154-78.769231-78.769231-78.76923-78.769231 35.446154-78.769231 78.76923 35.446154 78.769231 78.769231 78.769231z m-787.692308 0c43.323077 0 78.769231-35.446154 78.769231-78.769231s-35.446154-78.769231-78.769231-78.76923-78.769231 35.446154-78.769231 78.76923 35.446154 78.769231 78.769231 78.769231zM512 236.307692c43.323077 0 78.769231-35.446154 78.769231-78.76923s-35.446154-78.769231-78.769231-78.769231-78.769231 35.446154-78.769231 78.769231 35.446154 78.769231 78.769231 78.76923z m0 472.615385c74.830769 0 137.846154-63.015385 137.846154-137.846154S586.830769 433.230769 512 433.230769s-137.846154 63.015385-137.846154 137.846154S437.169231 708.923077 512 708.923077z m173.292308-512c141.784615 66.953846 240.246154 208.738462 240.246154 374.153846 0 19.692308 0 39.384615-3.938462 59.076923h-39.384615c3.938462-19.692308 3.938462-39.384615 3.938461-59.076923 0-149.661538-86.646154-279.630769-212.676923-338.707692l11.815385-35.446154zM267.815385 905.846154c7.876923-11.815385 11.815385-23.630769 15.753846-39.384616 63.015385 47.261538 141.784615 78.769231 228.430769 78.769231s165.415385-27.569231 228.430769-78.769231c3.938462 11.815385 11.815385 23.630769 19.692308 35.446154-66.953846 51.2-153.6 78.769231-244.184615 78.769231s-181.169231-27.569231-248.123077-74.830769z m-165.415385-275.692308c-3.938462-19.692308-3.938462-39.384615-3.938462-59.076923C98.461538 405.661538 196.923077 259.938462 338.707692 196.923077c3.938462 11.815385 7.876923 27.569231 11.815385 39.384615-126.030769 59.076923-212.676923 189.046154-212.676923 338.707693 0 19.692308 0 39.384615 3.938461 59.076923H118.153846c-3.938462-3.938462-11.815385-3.938462-15.753846-3.938462z m389.907692-354.461538C437.169231 263.876923 393.846154 216.615385 393.846154 157.538462c0-66.953846 51.2-118.153846 118.153846-118.153847s118.153846 51.2 118.153846 118.153847c0 59.076923-43.323077 106.338462-98.461538 118.153846v122.092307c86.646154 7.876923 157.538462 86.646154 157.538461 177.23077 0 23.630769-3.938462 51.2-15.753846 70.892307l145.723077 82.707693c19.692308-23.630769 51.2-35.446154 86.646154-35.446154 66.953846 0 118.153846 51.2 118.153846 118.153846s-51.2 118.153846-118.153846 118.153846-118.153846-51.2-118.153846-118.153846c0-15.753846 3.938462-35.446154 11.815384-47.261539l-141.784615-82.707692c-35.446154 39.384615-86.646154 66.953846-145.723077 66.953846s-110.276923-27.569231-141.784615-70.892307l-141.784616 82.707692c3.938462 11.815385 7.876923 31.507692 7.876923 47.261538 0 66.953846-51.2 118.153846-118.153846 118.153847s-118.153846-51.2-118.153846-118.153847 51.2-118.153846 118.153846-118.153846c35.446154 0 63.015385 15.753846 86.646154 35.446154l145.723077-82.707692c-7.876923-23.630769-15.753846-47.261538-15.753846-70.892308 0-90.584615 70.892308-165.415385 157.538461-177.230769V275.692308z" fill="#3D3C45" p-id="5174"></path></svg>