<?xml version="1.0" standalone="no"?><!DOCTYPE svg PUBLIC "-//W3C//DTD SVG 1.1//EN" "http://www.w3.org/Graphics/SVG/1.1/DTD/svg11.dtd"><svg t="1621588798970" class="icon" viewBox="0 0 1024 1024" version="1.1" xmlns="http://www.w3.org/2000/svg" p-id="7982" xmlns:xlink="http://www.w3.org/1999/xlink" width="48" height="48"><defs><style type="text/css"></style></defs><path d="M928.896 1024H410.368a95.36 95.36 0 0 1-95.168-95.168v-518.4a95.36 95.36 0 0 1 95.168-95.104L512 320v64H448c-30.784-5.504-64-3.136-64 0v576h576V384h-192V320h192c52.416 0 64 38.08 64 90.432v518.4A95.36 95.36 0 0 1 928.896 1024z m-315.52-315.328L512 704v-64h128V64H64v576h192v64l-160.896 4.672A95.36 95.36 0 0 1 0 613.504V95.168C0 42.432 42.752 0 95.104 0h518.272C665.728 0 704 75.264 704 128v512c0 52.416-38.272 68.672-90.624 68.672z" p-id="7983"></path></svg>