<?xml version="1.0" standalone="no"?><!DOCTYPE svg PUBLIC "-//W3C//DTD SVG 1.1//EN" "http://www.w3.org/Graphics/SVG/1.1/DTD/svg11.dtd"><svg t="1621588765114" class="icon" viewBox="0 0 1024 1024" version="1.1" xmlns="http://www.w3.org/2000/svg" p-id="6304" xmlns:xlink="http://www.w3.org/1999/xlink" width="48" height="48"><defs><style type="text/css"></style></defs><path d="M932.71 526.187c14.185 0 23.643-11.823 23.643-23.644V228.374c0-51.999-42.56-94.54-94.56-94.54H159.832c-52 0-94.543 42.541-94.543 94.54v567.252c0 52 42.542 94.542 94.543 94.542h704.335c51.999 0 94.542-42.541 94.542-94.542V691.625c0-14.186-11.814-23.626-23.645-23.626-14.169 0-23.626 11.814-23.626 23.626v99.271c0 28.373-21.272 49.626-49.645 49.626H164.56c-26 0-49.627-21.254-49.627-49.626V233.104c0-28.365 23.627-49.635 49.627-49.635H859.44c25.998 0 49.642 21.27 49.642 49.635v267.083c0 14.177 11.814 26 23.628 26zM534.822 313.458c0-7.084-4.728-14.177-14.186-14.177H223.645c-7.084 0-14.17 4.729-14.17 14.177v66.188c0 7.084 7.085 14.176 14.17 14.176h296.992c7.086 0 14.186-4.728 14.186-14.176v-66.188zM419.412 481.271c0-7.093-4.729-14.178-14.186-14.178h-181.58c-7.085 0-14.17 7.086-14.17 14.178v66.186c0 7.085 7.084 14.17 14.17 14.17h181.58c7.101 0 14.186-4.712 14.186-14.17V481.27z m-129.599 156h-66.169c-7.084 0-14.17 7.084-14.17 14.185v66.17c0 7.085 7.085 14.185 14.17 14.185h66.17c7.1 0 14.203-4.728 14.203-14.186v-66.169c0-9.457-7.101-14.186-14.204-14.186z m165.457-44.916l-2.373 4.729v4.729l-4.71 101.627v23.644l23.626-9.458 96.916-35.457 4.728-2.355 2.357-4.729 259.997-342.71 9.44-14.187-14.168-9.448-87.457-66.187-14.186-9.448-9.442 14.177L455.27 592.355z m269.44-319.074l87.457 66.177-2.357-23.636-259.997 342.72 7.1-4.73-96.915 35.458 21.272 16.541 2.372-99.27-4.746 9.457L748.353 268.55l-23.643 4.731z m35.458 127.635l18.914-28.364-75.644-54.365-18.898 28.365 75.628 54.364z m0 0" p-id="6305"></path></svg>