<?xml version="1.0" standalone="no"?><!DOCTYPE svg PUBLIC "-//W3C//DTD SVG 1.1//EN" "http://www.w3.org/Graphics/SVG/1.1/DTD/svg11.dtd"><svg t="1622203936863" class="icon" viewBox="0 0 1178 1024" version="1.1" xmlns="http://www.w3.org/2000/svg" p-id="3542" xmlns:xlink="http://www.w3.org/1999/xlink" width="55.21875" height="48"><defs><style type="text/css"></style></defs><path d="M1126.387814-0.000694 51.198097-0.000694c-28.275591 0-51.197481 22.92189-51.197481 51.200243l0 768.003645c0 28.275591 22.92189 51.193536 51.197481 51.193536L563.19816 870.39673l0 102.402459L409.599403 972.799189l0 51.201427 358.405252 0 0-51.201427L614.394852 972.799189l0-102.402459 512.007165 0c28.269673 0 51.195509-22.917945 51.195509-51.193536L1177.597526 51.199549c0-28.275591-22.925835-51.200243-51.195509-51.200243L1126.387814-0.000694zM1126.387814 819.197276 51.198097 819.197276 51.198097 665.601281l1075.189717 0L1126.387814 819.197276zM1126.387814 614.399855 51.198097 614.399855 51.198097 51.199549l1075.189717 0L1126.387814 614.399855zM614.394852 716.802313 563.19816 716.802313l0 51.193536 51.196298 0L614.394458 716.802313zM1060.033085 477.513957c-0.349154-3.371214-0.936996-6.669441-1.763526-9.871799-0.544444-2.136352-1.201328-4.231278-1.956843-6.280835-0.741707-2.045611-1.595853-4.048613-2.532849-5.996777-0.461594-0.97566-0.964613-1.937117-1.467632-2.884765-1.035628-1.894508-2.154105-3.734177-3.357406-5.510328-1.804951-2.665015-3.791383-5.19668-5.945489-7.570931-0.712117-0.789839-1.453824-1.563107-2.209339-2.321778-1.51103-1.51103-3.10491-2.951834-4.755996-4.314918-3.3002-2.724194-6.866704-5.136713-10.658087-7.196921-2.838606-1.541408-5.805432-2.884765-8.866945-4.010344-1.035628-0.374799-2.071255-0.723953-3.106883-1.052198-2.096899-0.650966-4.237196-1.199355-6.40511-1.647141-4.363444-0.891626-8.868917-1.357165-13.484857-1.357165-4.602132 0-9.11944 0.468695-13.469076 1.357165-2.167914 0.44384-4.308211 0.996175-6.407083 1.647141-1.033655 0.324299-2.069282 0.677399-3.10491 1.052198-0.516827 0.188188-1.019847 0.405177-1.524838 0.604412l-191.109384-191.105439c3.274556-7.892468 5.091342-16.543213 5.091342-25.621229 0-2.30797-0.110467-4.588323-0.335346-6.833169-0.349154-3.371214-0.936996-6.668258-1.761553-9.87101-0.546417-2.137535-1.203301-4.231278-1.958816-6.280835-0.741707-2.045611-1.59388-4.045852-2.530876-5.996777-0.475402-0.97566-0.966586-1.93396-1.483413-2.882004-1.021819-1.894508-2.140297-3.734177-3.343598-5.510328-1.802978-2.665015-3.789411-5.19668-5.943516-7.570931-0.727898-0.790233-1.469605-1.563107-2.22512-2.321778-1.509057-1.51103-3.091102-2.951045-4.740215-4.314918-3.302172-2.724194-6.868677-5.136713-10.66006-7.196132-2.838606-1.542592-5.80346-2.88516-8.880753-4.011133-1.021819-0.377955-2.057447-0.727109-3.10491-1.052592-2.085063-0.650966-4.22536-1.199355-6.407083-1.647141-4.349636-0.891626-8.853136-1.357165-13.469076-1.357165-2.30797 0-4.588323 0.119146-6.827251 0.345998-2.461835 0.248551-4.880272 0.644259-7.245448 1.151223-1.970651 0.422931-3.90185 0.916087-5.80346 1.507085-1.049436 0.325483-2.085063 0.674637-3.10491 1.052592-3.077293 1.126368-6.04412 2.468542-8.882726 4.011133-1.887801 1.027737-3.734177 2.15016-5.511511 3.349515-2.181722 1.479468-4.280594 3.097809-6.265054 4.821882-1.246698 1.074291-2.461835 2.178566-3.62371 3.339652-1.161875 1.164637-2.266545 2.377801-3.343598 3.622527-1.720128 1.996295-3.341625 4.080175-4.825038 6.269788-1.203301 1.779307-2.30797 3.618581-3.343598 5.510328-1.552455 2.84334-2.893839 5.808194-4.01429 8.882726-0.376771 1.020636-0.725926 2.055474-1.049436 3.10491-0.585869 1.898848-1.090861 3.835964-1.509057 5.801487-0.504992 2.36991-0.895571 4.783613-1.148067 7.245448-0.222907 2.248002-0.349154 4.527961-0.349154 6.831986 0 4.61594 0.475402 9.120229 1.357165 13.469865 0.447786 2.175015 0.99223 4.312156 1.649114 6.405899 0.32351 1.045491 0.672665 2.081118 1.049436 3.105699 0.60165 1.622286 1.274315 3.206303 1.986432 4.765859L488.855093 399.677373c-1.086916-0.531425-2.188429-1.038389-3.30809-1.513792-3.996536-1.692511-8.196252-3.007068-12.545888-3.895932-1.09165-0.223696-2.189613-0.41938-3.294282-0.586658-3.318742-0.506964-6.717574-0.769323-10.179529-0.769323l0 0c-3.461955 0-6.856841 0.262359-10.178739 0.769323-1.105458 0.167673-2.203421 0.362963-3.291126 0.586658-4.353581 0.891626-8.549352 2.203421-12.549833 3.895932-0.957906 0.405177-1.902793 0.835209-2.839789 1.282995l-183.933767-183.933767c3.434338-8.049095 5.339893-16.90736 5.339893-26.212227 0-2.30797-0.118357-4.588323-0.346393-6.835931-0.342053-3.367269-0.933051-6.665496-1.758397-9.867854-0.549573-2.137141-1.203301-4.231278-1.95487-6.280835-0.748414-2.048373-1.594669-4.048613-2.534822-6.000722-0.469484-0.97132-0.961457-1.933171-1.476312-2.88082-1.027737-1.895692-2.15016-3.734966-3.34557-5.511511-1.804951-2.663831-3.791383-5.195891-5.952195-7.569747-0.717246-0.791022-1.455007-1.563107-2.209339-2.319017-1.514975-1.513792-3.098992-2.954991-4.748895-4.314918-3.300989-2.726955-6.871438-5.140658-10.658087-7.196132-2.84334-1.545354-5.805432-2.88871-8.87878-4.01429-1.024975-0.374799-2.059419-0.723953-3.10491-1.049436-2.094927-0.649782-4.231278-1.203301-6.405899-1.649903-4.361471-0.88847-8.864972-1.35322-13.480912-1.35322-4.61594 0-9.11944 0.468695-13.473021 1.356376-2.174621 0.44384-4.312156 0.997359-6.405899 1.647141-1.045491 0.325483-2.081118 0.678583-3.105699 1.052592-3.073348 1.126368-6.038991 2.468542-8.877597 4.011133-3.791383 2.059419-7.357887 4.471938-10.658876 7.196132-1.649903 1.363872-3.237865 2.805071-4.748106 4.314918-0.755515 0.758671-1.493276 1.53194-2.214073 2.321778-2.156867 2.375039-4.146455 4.905916-5.947461 7.570931-1.203301 1.78049-2.318622 3.618581-3.350304 5.510328-0.513671 0.947649-1.006827 1.9095-1.475523 2.882004-0.936996 1.947769-1.787197 3.94801-2.534822 5.996777-0.748414 2.049556-1.402536 4.143299-1.95487 6.280835-0.825346 3.202358-1.416344 6.500585-1.758397 9.87101-0.227641 2.248791-0.346393 4.529145-0.346393 6.833169 0 36.915684 29.92865 66.849069 66.849069 66.849069 8.807766 0 17.211144-1.724073 24.91424-4.81912l186.304861 186.304861c-0.622166 1.776151-1.188309 3.577156-1.664895 5.419587-0.68529 2.667777-1.209218 5.406962-1.566263 8.193096-0.3531 2.787318-0.534581 5.629869-0.534581 8.514634 0 2.882004 0.181481 5.724555 0.534581 8.511872 0.357045 2.790079 0.880579 5.524136 1.566263 8.192307 0.825346 3.203541 1.881883 6.315158 3.151069 9.315519 0.422931 1.00012 0.870716 1.986432 1.339412 2.961698 2.814934 5.843701 6.458371 11.214367 10.769343 15.963262 2.158051 2.373856 4.483774 4.591085 6.962179 6.632751 0.825346 0.68529 1.667656 1.343357 2.528904 1.987616 1.713027 1.286151 3.492333 2.489451 5.332002 3.602011 2.759701 1.67673 5.643677 3.152253 8.640882 4.426568 4.000481 1.692511 8.196252 3.000361 12.549833 3.888042 1.088099 0.222907 2.185667 0.420169 3.294282 0.587842 3.318742 0.51091 6.717574 0.769323 10.179529 0.769323l0 0c3.460771 0 6.860786-0.258414 10.178739-0.769323 1.105458-0.167673 2.203421-0.364935 3.290337-0.587842 4.353581-0.887681 8.550141-2.19553 12.550622-3.888042 2.996416-1.274315 5.885126-2.755756 8.640093-4.426568 1.836513-1.11256 3.61582-2.31586 5.336737-3.602011 0.852963-0.644259 1.699218-1.301932 2.523775-1.987616 2.475643-2.041666 4.805312-4.258895 6.962179-6.632751 4.314918-4.748895 7.955592-10.123506 10.774472-15.963262 0.471457-0.97566 0.915298-1.964733 1.338228-2.961698 1.269186-3.000361 2.325724-6.111978 3.151464-9.315519 0.68529-2.667777 1.209218-5.401833 1.566263-8.192307 0.3531-2.784161 0.53537-5.629869 0.53537-8.511872 0-2.88516-0.182665-5.727316-0.53537-8.514634-0.357045-2.786134-0.880579-5.521374-1.566263-8.193096-0.42727-1.660949-0.936996-3.290337-1.486569-4.898814l170.057541-170.057541c0.11244 0.041425 0.224879 0.086795 0.321538 0.12901 2.057447 0.747624 4.140538 1.39859 6.280835 1.950925 3.203541 0.825346 6.503741 1.416344 9.874955 1.758397 2.252737 0.227641 4.53309 0.345998 6.84106 0.345998 9.034618 0 17.651039-1.801006 25.511945-5.055835l190.521542 190.528249c-0.516827 1.185547-1.006038 2.388848-1.453824 3.608718-0.755515 2.045611-1.39859 4.140538-1.958816 6.279651-0.824557 3.203541-1.412399 6.497823-1.761553 9.869037-0.224879 2.247608-0.335346 4.527961-0.335346 6.835931 0 2.304025 0.110467 4.584378 0.335346 6.831986 0.349154 3.371214 0.936996 6.668258 1.761553 9.871799 0.546417 2.136352 1.203301 4.231278 1.958816 6.279651 0.741707 2.046795 1.59388 4.049797 2.530876 5.994804 0.475402 0.978421 0.966586 1.937117 1.483413 2.880031 1.021819 1.903582 2.140297 3.73615 3.343598 5.511511 1.802978 2.670933 3.789411 5.203782 5.943516 7.574876 0.727898 0.78905 1.455796 1.566263 2.211311 2.321778 1.522866 1.51103 3.10491 2.951045 4.754024 4.314129 3.302172 2.728139 6.868677 5.13474 10.66006 7.196132 2.838606 1.546537 5.80346 2.889894 8.880753 4.008372 1.021819 0.376771 2.057447 0.727898 3.10491 1.055354 2.085063 0.650966 4.22536 1.197383 6.407083 1.643196 4.349636 0.895571 8.853136 1.357165 13.469076 1.357165 4.602132 0 9.121413-0.461594 13.471049-1.357165 2.167914-0.439895 4.308211-0.99223 6.40511-1.643196 1.035628-0.327456 2.071255-0.678583 3.10491-1.055354 3.063485-1.118478 6.030311-2.461835 8.868917-4.008372 3.791383-2.061392 7.357887-4.467993 10.658087-7.196132 1.651086-1.363083 3.244966-2.803099 4.755996-4.314129 0.755515-0.763405 1.497222-1.532729 2.209339-2.321778 2.154105-2.371094 4.140538-4.903943 5.945489-7.574876 1.203301-1.775362 2.321778-3.61582 3.357406-5.511511 0.516827-0.942914 1.006038-1.901609 1.467632-2.880031 0.936996-1.945007 1.791143-3.945248 2.546657-5.994804 0.741707-2.048373 1.39859-4.143299 1.943035-6.279651 0.826529-3.203541 1.414371-6.500585 1.763526-9.871799 0.222907-2.248002 0.349154-4.527961 0.349154-6.835931 0-2.304025-0.126248-4.584378-0.349154-6.831986L1060.033085 477.513563zM185.228818 168.557258c5.444442 0 10.395728 2.12925 14.102288 5.573452 4.074257 3.787438 6.640641 9.179408 6.640641 15.173423 0 11.437274-9.304867 20.74293-20.74293 20.74293-5.989675 0-11.38204-2.567173-15.173423-6.644586-3.446963-3.70656-5.573452-8.653901-5.573452-14.098343 0-11.442008 9.308812-20.746875 20.74293-20.746875L185.228818 168.557258zM480.274179 459.760342c0 11.438063-9.308812 20.74293-20.746875 20.74293-11.438063 0-20.74293-9.304867-20.74293-20.74293 0-11.442008 9.304867-20.746875 20.74293-20.746875C470.969706 439.013467 480.274179 448.322279 480.274179 459.760342zM736.896376 205.438619c0 11.438063-9.300922 20.74293-20.742141 20.74293-11.443191 0-20.744113-9.304867-20.744113-20.74293 0-11.442008 9.300922-20.746875 20.744113-20.746875C727.595454 184.691349 736.896376 193.996217 736.896376 205.438619zM993.535932 505.093212c-6.182203 0-11.721331-2.730901-15.538359-7.032404-3.231158-3.66119-5.21759-8.455455-5.21759-13.714471 0-11.438063 9.31473-20.74293 20.742141-20.74293 5.259015 0 10.058409 1.982487 13.721572 5.21759 4.294402 3.804008 7.03635 9.346292 7.03635 15.529285 0 11.438063-9.31473 20.74293-20.757922 20.74293L993.535932 505.093212z" fill="#1192D5" p-id="3543"></path></svg>