<?xml version="1.0" standalone="no"?><!DOCTYPE svg PUBLIC "-//W3C//DTD SVG 1.1//EN" "http://www.w3.org/Graphics/SVG/1.1/DTD/svg11.dtd"><svg t="1621588777996" class="icon" viewBox="0 0 1024 1024" version="1.1" xmlns="http://www.w3.org/2000/svg" p-id="7135" xmlns:xlink="http://www.w3.org/1999/xlink" width="48" height="48"><defs><style type="text/css"></style></defs><path d="M808.78 528.655c16.829-61.16 32.724-118.923 32.559-165.534-0.522-162.88-143.63-300.488-312.505-300.488l-4.015 0.028c-172.724 2.227-325.183 143.135-328.124 302.344-0.715 4.923-0.66 10.601-0.578 17.806 0.028 1.898 0.055 3.85 0.083 5.651-74.304 87.724-83.929 120.518-83.929 139.272 0 30.8 17.242 56.731 47.3 71.142 9.735 4.66 24.914 7.15 60.114 9.859l7.314 0.577-0.164 88.878c0.468 42.075 35.447 76.312 78.593 76.312l74.414 0.013-0.22 157.325c0 9.336 4.592 18.08 12.32 23.333a28.276 28.276 0 0 0 15.839 4.868 28.106 28.106 0 0 0 10.394-1.994l346.633-137.8c13.035-5.17 20.266-19.126 16.994-32.752-0.165-0.605-14.575-62.163-1.54-140.62 6.105-36.725 17.49-78.153 28.517-118.22z m-54.285-14.946c-11.412 41.456-23.21 84.327-29.782 123.927-9.872 59.317-5.967 110.232-2.008 138.749l-286.71 113.971 0.22-143.96a28.198 28.198 0 0 0-8.223-19.937 28.16 28.16 0 0 0-19.937-8.264l-103.26-0.013c-11.605 0-21.505-9.447-21.643-20.254l0.22-114.81c0.028-14.808-11.412-27.114-26.18-28.146l-33.191-2.392c-28.298-2.186-38.005-3.891-40.067-4.496-15.345-7.343-15.345-16.789-15.345-19.978 0.082-0.95 3.107-24.159 73.753-106.987l2.613-3.067c7.755-9.212 7.672-18.672 7.48-35.846-0.028-3.039-0.11-5.954-0.055-8.084a27.14 27.14 0 0 0 0.605-5.597c0.742-128.767 130.65-247.716 272.548-249.545l3.3-0.028c138.433 0 255.746 111.91 256.186 244.361 0.138 38.899-15.455 95.59-30.524 150.396z" p-id="7136"></path><path d="M519.236 168.672c-71.554 0-132.026 48.784-132.026 106.533 0 64.886 72.626 64.886 136.727 64.886 64.102 0 136.756 0 136.756-64.886 0-58.74-63.468-106.533-141.457-106.533z m4.703 115.099c-62.205 0-77.742-5.005-80.41-8.566 0-22.743 33.77-50.214 75.707-50.214 48.729 0 85.138 26.509 86.21 50.791-3.738 2.984-19.276 7.989-81.507 7.989z" p-id="7137"></path></svg>