<?xml version="1.0" standalone="no"?><!DOCTYPE svg PUBLIC "-//W3C//DTD SVG 1.1//EN" "http://www.w3.org/Graphics/SVG/1.1/DTD/svg11.dtd"><svg t="1622201449747" class="icon" viewBox="0 0 1024 1024" version="1.1" xmlns="http://www.w3.org/2000/svg" p-id="4157" xmlns:xlink="http://www.w3.org/1999/xlink" width="48" height="48"><defs><style type="text/css"></style></defs><path d="M511 510.8m-447.8 0a447.8 447.8 0 1 0 895.6 0 447.8 447.8 0 1 0-895.6 0Z" fill="#5CAAFD" p-id="4158"></path><path d="M511.2 211.5c-128.8 0-233.5 104.8-233.5 233.5 0 85.6 47.6 164.9 122.1 205.5v98.9c0 40 36.6 72.6 81.5 72.6h59.8c44.9 0 81.5-32.6 81.5-72.6v-98.9c74.5-40.6 122.1-119.9 122.1-205.5 0-128.7-104.8-233.5-233.5-233.5zM545.3 779h-68.2c-10.9 0-19.8-8.9-19.8-19.8s8.9-19.8 19.8-19.8h68.2c10.9 0 19.8 8.9 19.8 19.8s-8.9 19.8-19.8 19.8z m0-63.9h-68.2c-10.9 0-19.8-8.9-19.8-19.8s8.9-19.8 19.8-19.8h68.2c10.9 0 19.8 8.9 19.8 19.8 0 11-8.9 19.8-19.8 19.8z m108.6-252.3c-10.9 0-19.8-8.9-19.8-19.8 0-7.1-0.6-14.3-1.8-21.3-7.2-41.5-34.8-76.1-73.7-92.6-10.1-4.3-14.8-15.9-10.5-26 4.3-10.1 15.9-14.8 26-10.5 51.4 21.7 87.8 67.5 97.3 122.3 1.6 9.3 2.4 18.7 2.4 28.1-0.1 11-9 19.8-19.9 19.8z" fill="#FFFFFF" p-id="4159"></path></svg>